HIERARCHY
ROOT Hips
{
	OFFSET -3.958830 18.904000 13.208200
	CHANNELS 6 Xposition Yposition Zposition Zrotation Yrotation Xrotation 
	JOINT LHipJoint
	{
		OFFSET 0.000000 0.000000 0.000000
		CHANNELS 3 Zrotation Yrotation Xrotation
		JOINT LeftUpLeg
		{
			OFFSET 1.800000 -1.400000 0.085000
			CHANNELS 3 Zrotation Yrotation Xrotation
			JOINT LeftLeg
			{
				OFFSET 2.215000 -6.000000 0.000000
				CHANNELS 3 Zrotation Yrotation Xrotation
				JOINT LeftFoot
				{
					OFFSET 2.500000 -6.900000 0.000000
					CHANNELS 3 Zrotation Yrotation Xrotation
					JOINT LeftToeBase
					{
						OFFSET 0.200000 -0.500000 1.950000
						CHANNELS 3 Zrotation Yrotation Xrotation
						End Site
						{
							OFFSET 0.000000 0.000000 0.000000
						}
					}
				}
			}
		}
	}
	JOINT RHipJoint
	{
		OFFSET 0.000000 0.000000 0.000000
		CHANNELS 3 Zrotation Yrotation Xrotation
		JOINT RightUpLeg
		{
			OFFSET -1.800000 -1.400000 0.085000
			CHANNELS 3 Zrotation Yrotation Xrotation
			JOINT RightLeg
			{
				OFFSET -2.215000 -6.000000 0.000000
				CHANNELS 3 Zrotation Yrotation Xrotation
				JOINT RightFoot
				{
					OFFSET -2.500000 -6.900000 0.000000
					CHANNELS 3 Zrotation Yrotation Xrotation
					JOINT RightToeBase
					{
						OFFSET -0.200000 -0.500000 1.950000
						CHANNELS 3 Zrotation Yrotation Xrotation
						End Site
						{
							OFFSET 0.000000 0.000000 0.000000
						}
					}
				}
			}
		}
	}
	JOINT LowerBack
	{
		OFFSET 0.000000 0.000000 0.000000
		CHANNELS 3 Zrotation Yrotation Xrotation
		JOINT Spine
		{
			OFFSET -0.087000 1.940000 -0.288900
			CHANNELS 3 Zrotation Yrotation Xrotation
			JOINT Spine1
			{
				OFFSET 0.000000 1.950000 0.060000
				CHANNELS 3 Zrotation Yrotation Xrotation
				JOINT Neck
				{
					OFFSET 0.000000 0.000000 0.000000
					CHANNELS 3 Zrotation Yrotation Xrotation
					JOINT Neck1
					{
						OFFSET 0.000000 1.600000 0.340000
						CHANNELS 3 Zrotation Yrotation Xrotation
						JOINT Head
						{
							OFFSET 0.000000 1.667000 -0.240000
							CHANNELS 3 Zrotation Yrotation Xrotation
							End Site
							{
								OFFSET 0.000000 0.000000 0.000000
							}
						}
					}
				}
				JOINT LeftShoulder
				{
					OFFSET 0.000000 0.000000 0.000000
					CHANNELS 3 Zrotation Yrotation Xrotation
					JOINT LeftArm
					{
						OFFSET 2.700000 1.550000 -0.730000
						CHANNELS 3 Zrotation Yrotation Xrotation
						JOINT LeftForeArm
						{
							OFFSET 5.450000 0.000000 0.000000
							CHANNELS 3 Zrotation Yrotation Xrotation
							JOINT LeftHand
							{
								OFFSET 3.450000 0.000000 0.000000
								CHANNELS 3 Zrotation Yrotation Xrotation
								JOINT LeftHandIndex1
								{
									OFFSET 0.750000 0.000000 0.000000
									CHANNELS 3 Zrotation Yrotation Xrotation
									End Site
									{
										OFFSET 0.000000 0.000000 0.000000
									}
								}
							}
						}
					}
				}
				JOINT RightShoulder
				{
					OFFSET 0.000000 0.000000 0.000000
					CHANNELS 3 Zrotation Yrotation Xrotation
					JOINT RightArm
					{
						OFFSET -2.700000 1.550000 -0.730000
						CHANNELS 3 Zrotation Yrotation Xrotation
						JOINT RightForeArm
						{
							OFFSET -5.450000 0.000000 0.000000
							CHANNELS 3 Zrotation Yrotation Xrotation
							JOINT RightHand
							{
								OFFSET -3.450000 0.000000 0.000000
								CHANNELS 3 Zrotation Yrotation Xrotation
								JOINT RightHandIndex1
								{
									OFFSET -0.750000 0.000000 0.000000
									CHANNELS 3 Zrotation Yrotation Xrotation
									End Site
									{
										OFFSET 0.000000 0.000000 0.000000
									}
								}
							}
						}
					}
				}
			}
		}
	}
}
MOTION
Frames: 14
Frame Time: 0.016667
-0.244240 16.745990 -6.260180 1.826115 -58.178276 -6.283099 -15.697288 12.059731 5.548971 5.040286 -10.585810 -34.682867 -35.768109 19.096230 32.029959 1.179670 9.612708 1.253869 0.814660 0.620060 0.549990 18.050415 -9.040468 2.613253 9.578483 -1.406196 4.275644 -1.323723 -5.002511 28.298043 -1.173841 -5.053032 2.731344 0.196380 -0.138290 0.288000 -2.107100 -4.383184 -8.639580 -10.204748 3.332237 27.295161 -1.203301 4.018338 -9.316128 2.741349 -10.279190 -8.853218 -25.659816 22.997902 27.064118 -0.213640 15.261490 -23.367100 -11.970487 9.871182 -1.281241 -33.219193 -0.943983 -0.246690 -69.604511 -29.323966 17.753986 -3.193646 3.662246 0.721030 -0.236340 0.420410 0.348570 8.694676 -1.210579 4.853071 27.028094 -20.212420 -11.021143 -55.933075 37.923318 -13.233458 2.148922 -1.679285 0.089070 0.099340 -0.355140 -0.146880 
-0.087280 16.708860 -6.313550 2.109223 -55.638484 -9.263784 -15.702320 11.868616 5.747520 6.723931 -11.999108 -35.509265 -36.816804 21.189433 36.480808 1.404087 10.605801 0.937930 0.868110 0.685050 0.588690 18.095832 -8.857037 2.603603 10.365173 -1.717367 5.067343 -1.304286 -5.337578 29.464051 -1.257654 -5.241067 2.652228 0.227200 -0.191880 0.298460 -2.154395 -4.507093 -8.805349 -10.753360 2.927044 33.454894 -1.991566 3.890423 -8.708288 3.112094 -10.592336 -9.098300 -26.363618 21.732971 25.918167 -1.203460 13.588210 -26.020910 -12.161752 8.128091 -2.019564 -29.628056 -4.649474 0.501494 -75.613892 -30.980950 21.343450 -3.155394 3.713601 0.730360 -0.270730 0.457010 0.344110 8.005450 0.607532 5.777524 22.213227 -23.618363 -10.464470 -48.252623 40.795528 -11.534163 2.099418 -1.679218 0.123740 0.097370 -0.371780 -0.145380 
0.042630 16.680030 -6.368070 4.087955 -54.875243 -13.797556 -15.667801 11.624208 5.992940 9.000642 -13.209800 -36.212332 -39.875108 23.528785 39.028887 1.624203 11.519961 0.658151 0.909440 0.730780 0.637900 18.161691 -8.865190 2.430544 8.483094 -2.131707 7.198195 -1.612050 -5.759708 30.210974 -1.349691 -5.498878 2.548323 0.250540 -0.248100 0.311370 -2.203415 -4.379324 -8.901327 -12.981125 3.228165 38.506014 -2.609438 3.738065 -7.661867 3.243053 -10.595423 -9.388968 -26.308072 21.140021 25.419742 -2.557480 13.009820 -28.747320 -12.646326 5.509767 -2.361941 -25.131102 -7.787973 0.504060 -79.119191 -33.035360 24.344262 -3.131068 3.726610 0.759140 -0.303460 0.501140 0.329050 8.080091 2.941301 6.565664 19.218122 -26.351967 -10.458545 -43.424013 44.467420 -11.174773 2.011907 -1.659557 0.142890 0.097040 -0.380600 -0.160190 
0.156060 16.646000 -6.408830 5.689151 -54.859879 -17.404082 -15.641863 11.323267 6.290501 12.286138 -13.581194 -38.026565 -43.650912 26.303130 40.763075 1.855735 12.389970 0.411811 0.918360 0.732860 0.651550 18.225144 -8.877614 2.233940 6.197438 -2.217284 8.722073 -0.330033 -6.644906 30.701189 -1.403060 -5.765892 2.451559 0.248430 -0.272920 0.325590 -2.294894 -4.148302 -9.010691 -15.226832 3.690009 43.256369 -2.881785 3.664399 -7.757968 3.693975 -10.655384 -9.972633 -25.720672 20.736674 23.886560 -3.511630 12.744210 -29.668560 -10.742362 4.262281 -1.727969 -22.929139 -8.214228 0.158561 -85.239907 -35.385446 28.626845 -3.109877 3.786588 0.765020 -0.314300 0.511480 0.318980 5.605035 4.385043 6.881359 19.934825 -26.620175 -11.430805 -39.625917 48.396793 -10.824500 1.902733 -1.662717 0.155720 0.078030 -0.377780 -0.166370 
0.245860 16.601320 -6.446540 7.485206 -56.104741 -20.602290 -15.647232 11.030332 6.616097 16.564914 -12.411352 -40.623603 -47.738405 29.349027 41.476110 2.010635 13.134815 0.201626 0.905060 0.720330 0.665500 18.281470 -8.811269 1.997501 3.870133 -2.036231 10.291200 0.370736 -7.253022 31.581205 -1.441067 -6.065190 2.343436 0.258770 -0.266640 0.342230 -2.197591 -4.094581 -9.134340 -17.909936 5.760811 45.892706 -2.136560 5.144427 -7.232477 4.123446 -10.407483 -10.198043 -23.933661 19.562689 22.720406 -5.179740 12.618900 -29.913760 -8.118770 3.490407 -1.709265 -22.395598 -10.749489 0.595795 -90.633897 -34.462215 30.161277 -3.134640 3.803187 0.756570 -0.280980 0.505430 0.297270 2.307232 5.851957 7.425290 20.614873 -25.895690 -11.759869 -33.529436 49.233315 -8.565755 1.815975 -1.702438 0.142430 0.081400 -0.356490 -0.184610 
0.338540 16.565580 -6.464230 8.438924 -58.238591 -22.852052 -15.663895 10.634611 7.024012 21.939527 -10.038173 -43.583367 -51.514584 32.245078 41.701271 2.093199 13.680582 0.039122 0.903690 0.724240 0.704620 18.354719 -8.733366 1.763574 1.779377 -1.706708 11.368639 1.474076 -7.949420 32.467842 -1.473829 -6.353785 2.234113 0.283460 -0.264970 0.355570 -2.171104 -3.871950 -9.287295 -19.057564 7.219756 47.608224 -2.319867 6.458687 -5.756422 4.564474 -9.995058 -10.765604 -21.930643 18.818667 21.780950 -7.055990 13.193270 -29.779550 -5.474883 1.877005 -1.230165 -22.512297 -12.469592 0.288574 -92.387005 -33.874300 29.554290 -3.181548 3.784361 0.740920 -0.236910 0.499930 0.268660 -1.180291 7.898061 8.036889 22.569584 -23.395127 -12.480169 -28.002973 48.599340 -6.457208 1.729140 -1.735425 0.127340 0.085380 -0.343370 -0.214280 
0.444640 16.580320 -6.505530 9.441158 -59.330071 -25.467702 -15.645527 10.467745 7.185469 25.148010 -8.715517 -43.685850 -52.906299 33.166742 41.575825 2.081906 13.810886 -0.027307 0.914150 0.733610 0.750550 18.419421 -8.731885 1.595064 0.233268 -1.401829 11.771729 1.765577 -8.403692 33.725863 -1.519160 -6.563151 2.146033 0.288970 -0.293490 0.383030 -2.112815 -3.833392 -9.339060 -21.156935 8.332973 49.373773 -1.755154 6.676147 -2.823262 4.643170 -9.662354 -11.724345 -20.801056 18.966327 21.303601 -8.951820 14.127920 -31.133650 -4.744002 -1.487019 -0.061993 -20.585636 -11.858780 -1.645332 -92.976472 -34.696609 28.902148 -3.204707 3.756557 0.756430 -0.227910 0.528060 0.241170 -2.153883 11.253168 9.051678 22.589962 -22.761860 -13.324905 -25.997865 48.520674 -6.205676 1.663859 -1.727681 0.134250 0.072880 -0.336280 -0.241630 
0.536610 16.592210 -6.518960 8.645029 -60.801744 -25.837906 -15.643184 10.293120 7.361259 28.654261 -7.382362 -43.202068 -54.726713 33.504856 40.629930 2.067155 13.782009 -0.033292 0.922100 0.731700 0.759750 18.467145 -8.706006 1.515894 -0.139270 -1.366703 11.878414 1.681405 -8.556457 34.443295 -1.559033 -6.631055 2.118450 0.276640 -0.318750 0.386860 -2.182184 -3.664374 -9.397969 -21.568595 7.759605 51.045529 -1.864222 5.916353 -0.871391 4.673748 -9.991525 -13.087515 -21.791487 20.452906 20.414287 -9.471350 14.960580 -32.931380 -4.762269 -4.077787 1.820810 -19.114748 -7.831749 -3.724187 -96.097858 -36.095084 29.970122 -3.162391 3.753970 0.800270 -0.262000 0.555140 0.237760 -2.018624 13.944753 9.799276 20.152787 -22.546555 -13.240985 -23.057070 48.369415 -5.495665 1.651673 -1.709901 0.135990 0.072300 -0.334230 -0.250760 
0.603340 16.611530 -6.512430 6.691377 -61.867569 -24.818826 -15.664069 10.238987 7.440093 31.292230 -6.316866 -42.050010 -54.888409 33.640425 40.610523 2.057379 13.766493 -0.042966 0.927340 0.733370 0.783950 18.479926 -8.613083 1.516211 0.139555 -1.488732 12.227855 1.881573 -8.658145 34.332309 -1.592768 -6.605463 2.122995 0.260150 -0.354940 0.377450 -2.179783 -3.682944 -9.451849 -21.386468 6.931939 52.318947 -1.732953 5.222420 0.128249 4.883906 -10.332191 -13.984408 -23.139970 21.605080 20.336844 -10.447560 15.431390 -34.893350 -4.884118 -5.607472 3.161855 -19.699677 -4.850001 -5.105138 -97.398529 -35.394028 28.419054 -3.117028 3.716106 0.837700 -0.304560 0.590750 0.226720 -2.193294 15.725506 10.118412 18.315266 -21.203935 -13.382637 -20.177782 49.457817 -4.970594 1.647038 -1.666898 0.142180 0.083990 -0.338600 -0.258050 
0.658300 16.636630 -6.499110 5.202927 -62.969234 -23.598219 -15.683353 10.247005 7.490992 33.091864 -5.195702 -41.188164 -54.688421 33.270948 40.065051 2.044967 13.682648 -0.016057 0.885490 0.677700 0.762390 18.487084 -8.519725 1.506435 0.198433 -1.264450 12.075310 2.454225 -8.761098 34.090229 -1.584342 -6.551978 2.152461 0.210820 -0.351180 0.367220 -2.116886 -3.810378 -9.508910 -21.504416 7.155912 52.945829 -0.803479 5.284319 0.300262 5.453253 -10.435976 -15.206636 -24.202227 21.839064 20.803518 -10.621780 15.514030 -34.994370 -4.277724 -7.774205 4.535908 -22.039170 -3.425311 -6.388753 -95.234603 -33.807995 24.352227 -3.096366 3.651984 0.857440 -0.322470 0.594210 0.218030 -3.363858 18.244424 11.039605 19.589670 -21.237351 -14.571034 -18.874155 50.010520 -4.704079 1.622312 -1.630240 0.136240 0.093130 -0.321030 -0.255110 
0.682380 16.665700 -6.484810 5.775440 -64.482454 -22.916476 -15.665561 10.306773 7.464690 33.524757 -3.740812 -40.107308 -54.259027 31.966005 37.901247 2.007809 13.343580 0.072342 0.860430 0.658760 0.738260 18.492906 -8.599996 1.490892 -0.227897 -0.825183 11.314319 2.049636 -8.222270 33.207976 -1.536632 -6.306213 2.247612 0.165410 -0.365440 0.356520 -2.124387 -3.700737 -9.494697 -22.160341 7.717005 51.424226 -0.016253 5.346670 -0.780665 5.579833 -10.364295 -15.804267 -24.966687 22.226307 22.546476 -10.358960 15.564570 -35.771760 -4.177969 -8.892203 5.312471 -23.855948 -2.588398 -6.635077 -92.302999 -30.781027 19.801583 -3.062133 3.607957 0.866180 -0.356950 0.614610 0.217860 -3.314888 19.601069 11.256376 20.510467 -20.805886 -16.153941 -13.911757 55.330876 -4.058615 1.597257 -1.619586 0.158040 0.092660 -0.320430 -0.234730 
0.687890 16.697550 -6.473140 4.763671 -65.375809 -19.973555 -15.716754 10.309533 7.527129 34.492263 -2.372571 -39.746726 -54.186915 29.924639 34.699667 1.962085 12.908801 0.203217 0.825060 0.615690 0.692090 18.451278 -8.597331 1.518923 0.451606 -0.546208 9.784113 1.748863 -7.645267 32.123971 -1.466433 -5.982184 2.372152 0.106630 -0.363840 0.346070 -2.225414 -3.515646 -9.508387 -22.022001 7.508891 49.909672 0.528257 5.077451 -2.695046 5.804883 -10.427380 -16.367557 -25.842439 22.372567 23.348158 -9.293480 15.460550 -35.879440 -4.966428 -9.376005 5.936403 -25.479497 -1.085602 -6.575731 -89.886049 -29.890400 18.239317 -3.023635 3.608062 0.867260 -0.390290 0.613790 0.229970 -2.375005 20.176109 11.525866 21.403760 -20.702821 -16.650210 -10.741665 57.660783 -3.208285 1.639996 -1.611542 0.176020 0.075640 -0.322700 -0.207040 
0.689460 16.730990 -6.459740 3.669607 -67.882416 -17.257853 -15.761395 10.418563 7.514962 35.821175 -0.539000 -37.705942 -54.329136 27.811785 30.765207 1.878124 12.481267 0.317895 0.787000 0.575440 0.646590 18.430847 -8.481674 1.531076 1.238843 -0.267317 8.768128 0.977367 -6.892980 30.995391 -1.390183 -5.678650 2.480926 0.070590 -0.342950 0.341160 -2.092946 -3.755900 -9.504672 -22.756827 8.119356 47.382661 2.345534 5.369664 -3.485529 5.970920 -10.609836 -16.870644 -27.079708 23.081316 22.925281 -8.984890 15.777420 -35.399320 -4.922837 -9.635665 6.873744 -28.521853 0.199404 -6.714376 -89.071969 -31.445434 19.311552 -3.028479 3.613450 0.856040 -0.392580 0.596610 0.231340 -2.150461 20.691396 11.656257 22.277432 -19.707053 -16.922405 -12.632874 58.069368 -4.046633 1.655002 -1.556764 0.179010 0.069390 -0.305970 -0.188430 
0.685690 16.769310 -6.438470 3.483999 -70.884619 -14.694483 -15.778693 10.597394 7.415409 35.905980 1.084898 -35.295910 -53.300012 25.222833 26.319603 1.762856 11.955671 0.475346 0.741250 0.520820 0.590620 18.395531 -8.525107 1.531394 1.524345 0.196476 6.763363 -0.097885 -6.008992 30.155733 -1.288296 -5.310510 2.626370 0.030300 -0.304850 0.321460 -2.061207 -3.786995 -9.413330 -23.199741 8.158727 43.668153 3.075310 5.322989 -4.434644 5.911425 -10.771011 -17.106252 -28.283739 24.318286 22.716332 -8.386710 16.261480 -35.343320 -5.699662 -9.100146 7.713258 -31.181312 2.696751 -6.744906 -89.289183 -35.409460 23.359410 -3.035379 3.606037 0.857090 -0.398740 0.571170 0.244210 -0.954712 20.242936 11.258995 24.075604 -17.557419 -17.570096 -14.199430 60.461283 -5.320504 1.669216 -1.477558 0.162900 0.089690 -0.287060 -0.169250 
